# xmcd CD database file
# Copyright (C) 1993-1998 Ti Kan
# 
# Track frame offsets:
#     182
#     11387
#     25157
#     37740
#     50185
#     60512
#     72385
#     85115
#     97587
#     109960
#     122212
#     133990
#     146807
#     160450
#     174380
#     185287
#     195777
#     205130
# 
# Disc length: 2858 seconds
# 
# Revision: 1
# Processed by: cddbd v1.4b41PL1 Copyright (c) Steve Scherf et al.
# Submitted via: DiscPlay 4.0.4
# 
DISCID=f20b2812
DTITLE=Jimmy Reed - Classic Recordings (Volume 1)
DYEAR=1900
DGENRE=
TTITLE0=Come Love
TTITLE1=Things Ain't What They Use To Be
TTITLE2=Big Boss Man
TTITLE3=You Got Me Dizzy
TTITLE4=Found Love
TTITLE5=I'm Nervous
TTITLE6=Meet Me
TTITLE7=A String To Your Heart
TTITLE8=Go On To School
TTITLE9=My First Plea
TTITLE10=Bright Lights Big City
TTITLE11=The Sun Is Shining
TTITLE12=Help Yourself
TTITLE13=You Don't Have To Go
TTITLE14=Down In Virginia
TTITLE15=Take Out Some Insurance
TTITLE16=Going By The River (Part One)
TTITLE17=Going By The River (Part Two)
EXTD=
EXTT0=
EXTT1=
EXTT2=
EXTT3=
EXTT4=
EXTT5=
EXTT6=
EXTT7=
EXTT8=
EXTT9=
EXTT10=
EXTT11=
EXTT12=
EXTT13=
EXTT14=
EXTT15=
EXTT16=
EXTT17=\n
PLAYORDER=
